<svg width="900" height="788" viewBox="0 0 900 788" fill="none" xmlns="http://www.w3.org/2000/svg">
<path d="M180 246.179C180 246.179 126.17 86.8991 313.93 106.339C501.69 125.779 411.98 55.2791 482.93 11.5291C553.88 -32.2209 762.93 103.889 675.47 235.169C588.01 366.449 815.24 246.359 862.64 443.779C891.89 565.609 819.32 655.279 759.45 706.109" fill="white"/>
<path d="M180 246.179C180 246.179 126.17 86.8991 313.93 106.339C501.69 125.779 411.98 55.2791 482.93 11.5291C553.88 -32.2209 762.93 103.889 675.47 235.169C588.01 366.449 815.24 246.359 862.64 443.779C891.89 565.609 819.32 655.279 759.45 706.109" stroke="#CCDDE2" stroke-width="5.47" stroke-miterlimit="10"/>
<path d="M152 274C156.8 264.8 171.667 254.167 178.5 250H592.5C653.667 396.167 772.3 692.3 757.5 707.5C742.7 722.7 733.333 725.167 730.5 724.5C721.3 738.1 710.333 738.5 706 737L727 784.5L398 777.5L323.5 552L97.5 424.5C113.667 378.167 147.2 283.2 152 274Z" fill="white"/>
<path d="M777.76 553.902C763.65 472.192 713.69 399.072 632.52 372.902C611.756 366.245 590.523 361.147 569 357.652V357.762C567.878 364.545 565.22 370.983 561.23 376.582C552.77 388.172 541.11 397.692 527.61 402.652C513.83 407.752 496.76 408.412 483.97 400.392C476.27 395.572 468.8 387.082 467.45 377.922C465.91 367.602 471.17 357.832 478.57 351.012C415.85 351.522 356.85 361.842 309.57 373.592C311.209 380.453 313.478 387.148 316.35 393.592C320.369 402.575 326.048 410.718 333.09 417.592C341.873 408.891 349.563 399.153 355.99 388.592C362.138 390.604 367.56 394.38 371.58 399.449C375.599 404.518 378.041 410.656 378.6 417.102V417.432C381.08 440.842 358.54 458.432 339.6 469.252C317.72 481.832 293.33 491.252 269.37 499.082C259.49 502.322 246.65 505.082 236.22 501.702C235.097 501.344 234.001 500.906 232.94 500.392C222.54 495.292 215.58 484.602 210.15 474.832C194.68 447.082 184.62 416.832 177.8 385.782C130.47 391.832 125.05 359.782 122.24 351.922L81.75 465.112C79.626 473.248 79.397 481.763 81.078 490.002C82.76 498.241 86.309 505.985 91.452 512.638C96.594 519.291 103.194 524.676 110.743 528.38C118.293 532.084 126.591 534.007 135 534.002H302.62L378.76 729.302L400.34 784.732H523.6C513.6 784.732 508.13 782.292 504.16 778.312C500.06 774.21 497.752 768.651 497.74 762.852C497.74 750.852 507.59 741.012 523.6 741.012H524.73C523.52 741.012 522.36 740.902 521.15 740.792C521.9 740.711 522.644 740.587 523.38 740.422C522.587 740.403 521.796 740.343 521.01 740.242C528.231 739.389 534.923 736.026 539.915 730.739C544.907 725.453 547.882 718.58 548.32 711.322C548.34 710.945 548.34 710.568 548.32 710.192V709.612C548.148 702.171 545.303 695.04 540.308 689.523C535.312 684.005 528.497 680.47 521.11 679.562C521.95 679.492 522.75 679.422 523.56 679.422C522.83 679.242 522.02 679.132 521.26 679.022C522.46 678.912 523.67 678.832 524.83 678.832L615.01 679.312L631.6 679.382H651.29C652.2 679.382 653.12 679.382 653.99 679.492L683.24 679.642L702.78 679.752C710.947 679.82 718.753 683.12 724.493 688.93C730.233 694.739 733.439 702.585 733.41 710.752C733.4 715.37 732.329 719.923 730.28 724.062C738.664 722.989 746.438 719.112 752.34 713.062C766.41 698.692 772.47 677.182 776.66 658.062C784.07 624.002 783.63 588.112 777.76 553.902ZM549.92 556.202C532.93 582.352 504 580.002 504 580.002C504 580.002 501.6 582.342 496 572.382C490.4 562.422 474.45 555.612 474.45 555.612C473.18 565.612 470.55 580.812 444.45 561.112C418.35 541.412 426.22 512.692 428.45 497.522C430.68 482.352 439.57 477.322 439.57 477.322L450.07 471.782C450.07 471.782 419.7 463.972 418.24 463.682C416.78 463.392 389.73 440.742 417.18 434.762C444.63 428.782 487.42 452.562 495.69 457.262C503.96 461.962 552.29 502.842 552.29 502.842C552.29 502.842 567 530.092 549.92 556.202Z" fill="#353642"/>
<path d="M177.76 385.8C177.76 385.8 200.65 383.02 209.22 366.68L201.75 408.59C201.75 408.59 292.81 377.59 309.51 373.59C309.51 373.59 314.89 408.28 336.31 417.59L358.41 389.49C358.41 389.49 386.12 396.49 378.54 434.25C370.96 472.01 266.12 503.57 248.34 502.84C230.56 502.11 211.42 491.17 191.82 432.38L177.76 385.8Z" fill="#353642"/>
<path d="M215.05 292.441C220.85 301.881 226.68 311.301 232.7 320.601C236.41 326.331 243.17 334.501 235.98 340.491C233.64 342.285 230.814 343.331 227.87 343.491C223.25 343.901 218.4 342.791 215.59 338.821L201.59 315.621C198.8 310.994 194.369 307.588 189.181 306.079C183.992 304.571 178.426 305.072 173.59 307.481" stroke="black" stroke-width="5.47" stroke-miterlimit="10"/>
<path d="M268 322.998C271.66 331.698 269.18 337.308 264.9 340.128C257.9 344.718 248.53 342.518 243.57 335.818L215.1 292.488" stroke="black" stroke-width="5.47" stroke-miterlimit="10"/>
<path d="M239.15 279.841C249.51 292.441 262.58 315.841 269.81 325.611C277.04 335.381 288.22 329.491 288.22 329.491C297.3 324.601 295.76 316.491 291.79 306.641C282.01 282.461 268.05 266.381 252.48 255.841C204.23 223.201 154.73 247.281 140 303.621L81.75 465.111C79.626 473.248 79.397 481.763 81.078 490.002C82.76 498.241 86.309 505.985 91.452 512.638C96.594 519.291 103.194 524.676 110.743 528.38C118.293 532.083 126.591 534.006 135 534.001H302.62L400.37 784.741" stroke="black" stroke-width="5.47" stroke-miterlimit="10"/>
<path d="M299 295.55C311 291.39 310.45 272.25 293.42 265.79C274.61 258.65 241.21 248.55 232.82 246.03C232.768 245.99 232.705 245.966 232.64 245.96C232.05 245.78 231.64 245.63 231.32 245.56L230.85 245.41" stroke="black" stroke-width="5.47" stroke-miterlimit="10"/>
<path d="M476.3 486.919C465.8 474.299 437.06 467.149 418.3 463.689C415.147 463.097 412.272 461.496 410.107 459.128C407.943 456.76 406.607 453.753 406.3 450.559C406.082 448.405 406.331 446.229 407.03 444.179C408.148 441.032 410.291 438.352 413.114 436.568C415.937 434.784 419.278 433.999 422.6 434.339C454.6 437.579 487.6 447.649 512.01 469.339C512.01 469.339 630.34 559.639 644.47 568.429C650.3 571.969 655.74 567.789 651.79 562.229L650.55 560.109C643.595 548.173 635.363 537.028 626 526.869" stroke="black" stroke-width="5.47" stroke-miterlimit="10"/>
<path d="M478.49 351C329.67 352.24 201.75 408.58 201.75 408.58L214.52 337" stroke="black" stroke-width="5.47" stroke-miterlimit="10"/>
<path d="M709.63 740.569C709.63 740.569 693.42 736.899 689.11 749.879C684.8 762.859 680.3 783.509 711.29 784.729C742.28 785.949 724.08 779.859 722.29 769.829C720.5 759.799 709.63 740.569 709.63 740.569Z" fill="#353642"/>
<path d="M462 503.391C462 503.391 444.51 490.131 428.76 503.571C428.097 504.155 427.518 504.828 427.04 505.571" stroke="black" stroke-width="5.47" stroke-miterlimit="10"/>
<g opacity="0.77">
<path opacity="0.77" d="M243.51 335.771C248.51 342.481 257.87 344.671 264.84 340.071C269.07 337.271 271.55 331.691 267.98 323.071C268.63 324.021 269.22 324.861 269.8 325.631C277.02 335.441 288.21 329.531 288.21 329.531C297.29 324.641 295.76 316.531 291.79 306.671C287.905 296.905 282.808 287.666 276.62 279.171C280.67 275.381 285.48 271.551 290.55 273.231C296.02 275.051 297.55 281.911 298.17 287.631C298.46 290.291 298.75 292.921 299.04 295.581L303.42 334.741C304.88 347.741 306.34 360.931 309.51 373.621C311.149 380.482 313.418 387.177 316.29 393.621C320.309 402.604 325.988 410.747 333.03 417.621C341.813 408.92 349.503 399.182 355.93 388.621C362.078 390.633 367.5 394.409 371.52 399.478C375.539 404.547 377.981 410.685 378.54 417.131V417.461C381.02 440.871 358.48 458.461 339.54 469.281C317.66 481.861 293.27 491.281 269.31 499.111C259.43 502.351 246.59 505.111 236.16 501.731C235.037 501.373 233.941 500.935 232.88 500.421C222.48 495.321 215.52 484.631 210.09 474.861C184.09 428.111 173.29 374.431 167.6 321.271C178.98 319.701 190.32 317.951 201.52 315.541C201.52 315.541 201.52 315.621 201.59 315.651L214.5 337.061L215.56 338.841C218.36 342.841 223.21 343.911 227.84 343.511C230.784 343.365 233.612 342.318 235.94 340.511C243.12 334.511 236.38 326.371 232.66 320.641" fill="white"/>
<path opacity="0.77" d="M243.51 335.771C248.51 342.481 257.87 344.671 264.84 340.071C269.07 337.271 271.55 331.691 267.98 323.071C268.63 324.021 269.22 324.861 269.8 325.631C277.02 335.441 288.21 329.531 288.21 329.531C297.29 324.641 295.76 316.531 291.79 306.671C287.905 296.905 282.808 287.666 276.62 279.171C280.67 275.381 285.48 271.551 290.55 273.231C296.02 275.051 297.55 281.911 298.17 287.631C298.46 290.291 298.75 292.921 299.04 295.581L303.42 334.741C304.88 347.741 306.34 360.931 309.51 373.621C311.149 380.482 313.418 387.177 316.29 393.621C320.309 402.604 325.988 410.747 333.03 417.621C341.813 408.92 349.503 399.182 355.93 388.621C362.078 390.633 367.5 394.409 371.52 399.478C375.539 404.547 377.981 410.685 378.54 417.131V417.461C381.02 440.871 358.48 458.461 339.54 469.281C317.66 481.861 293.27 491.281 269.31 499.111C259.43 502.351 246.59 505.111 236.16 501.731C235.037 501.373 233.941 500.935 232.88 500.421C222.48 495.321 215.52 484.631 210.09 474.861C184.09 428.111 173.29 374.431 167.6 321.271C178.98 319.701 190.32 317.951 201.52 315.541C201.52 315.541 201.52 315.621 201.59 315.651L214.5 337.061L215.56 338.841C218.36 342.841 223.21 343.911 227.84 343.511C230.784 343.365 233.612 342.318 235.94 340.511C243.12 334.511 236.38 326.371 232.66 320.641" fill="#3FBDF1"/>
<path opacity="0.77" d="M246.58 338.941C251.01 344.941 258.58 344.181 264.84 340.071C268.62 337.571 271.72 338.301 268.53 330.591C269.12 331.431 269.2 328.591 269.72 329.221C276.17 337.981 269.8 325.601 269.8 325.601C278.8 336.971 298.39 326.261 294.8 317.471C291 308.001 287 294.001 281.93 287.001C285.93 283.221 285.16 283.781 290.25 286.791C291.617 287.669 292.762 288.854 293.593 290.251C294.425 291.648 294.92 293.219 295.04 294.841C295.45 298.651 295.86 302.301 296.27 306.021L300.17 341.021C301.48 352.651 302.78 364.401 305.61 375.721C307.073 381.842 309.102 387.814 311.67 393.561C315.25 401.471 326.75 414.641 333.03 420.671C340.84 412.921 350.2 398.671 355.93 389.201C366.93 392.581 366.45 403.101 367.23 414.591V414.891C369.45 435.781 349.33 451.471 332.47 461.141C312.93 472.371 291.16 480.771 269.77 487.771C260.95 490.671 249.49 493.171 240.18 490.111C239.176 489.794 238.196 489.402 237.25 488.941C227.97 484.381 221.75 474.851 216.9 466.121C195.67 427.991 185.82 384.701 180.4 341.301C180.002 338.053 180.881 334.779 182.851 332.167C184.821 329.555 187.728 327.81 190.96 327.301C197.05 326.301 203.12 325.301 209.15 323.961L209.32 324.041L220.84 343.151C223.35 346.701 223.76 343.921 227.89 343.561C230.5 343.331 235.56 342.821 237.58 341.131C243.99 335.791 240.37 333.581 237.05 328.471" fill="#3FBDF1"/>
</g>
<path d="M459.89 522.692C459.89 522.692 426.68 511.772 426.18 530.132" stroke="black" stroke-width="5.47" stroke-miterlimit="10"/>
<path opacity="0.54" d="M162.62 709.718L97.49 542.858C96.683 539.629 96.623 536.259 97.313 533.003C98.004 529.748 99.428 526.692 101.476 524.069C103.525 521.446 106.144 519.324 109.136 517.865C112.127 516.406 115.412 515.648 118.74 515.648H377.44C383.249 515.647 388.889 517.602 393.452 521.198C398.014 524.793 401.233 529.82 402.59 535.468L473.89 702.288C474.661 705.506 474.692 708.857 473.982 712.089C473.271 715.321 471.838 718.35 469.789 720.948C467.74 723.547 465.129 725.647 462.152 727.092C459.175 728.536 455.909 729.287 452.6 729.288H187.71C181.944 729.292 176.343 727.367 171.797 723.821C167.251 720.275 164.021 715.311 162.62 709.718Z" fill="white"/>
<path d="M470.7 550.838C470.7 550.838 476.09 555.778 474.04 562.838C472.52 568.068 467.32 571.368 462.17 569.578C445.77 563.908 431 554.278 427.4 537.908C425.699 529.62 425.331 521.113 426.31 512.708C427.1 504.918 428.25 496.508 430.87 489.098C434.87 477.718 447.12 469.788 459.01 475.268" stroke="black" stroke-width="5.47" stroke-miterlimit="10"/>
<path d="M162.62 709.718L97.49 542.858C96.683 539.629 96.623 536.259 97.313 533.003C98.004 529.748 99.428 526.692 101.476 524.069C103.525 521.446 106.144 519.324 109.136 517.865C112.127 516.406 115.412 515.648 118.74 515.648H377.44C383.249 515.647 388.889 517.602 393.452 521.198C398.014 524.793 401.233 529.82 402.59 535.468L473.89 702.288C474.661 705.506 474.692 708.857 473.982 712.089C473.271 715.321 471.838 718.35 469.789 720.948C467.74 723.547 465.129 725.647 462.152 727.092C459.175 728.536 455.909 729.287 452.6 729.288H187.71C181.944 729.292 176.343 727.367 171.797 723.821C167.251 720.275 164.021 715.311 162.62 709.718Z" fill="#3FBDF1"/>
<path d="M162.62 709.718L97.49 542.858C96.683 539.629 96.623 536.259 97.313 533.003C98.004 529.748 99.428 526.692 101.476 524.069C103.525 521.446 106.144 519.324 109.136 517.865C112.127 516.406 115.412 515.648 118.74 515.648H377.44C383.249 515.647 388.889 517.602 393.452 521.198C398.014 524.793 401.233 529.82 402.59 535.468L473.89 702.288C474.661 705.506 474.692 708.857 473.982 712.089C473.271 715.321 471.838 718.35 469.789 720.948C467.74 723.547 465.129 725.647 462.152 727.092C459.175 728.536 455.909 729.287 452.6 729.288H187.71C181.944 729.292 176.343 727.367 171.797 723.821C167.251 720.275 164.021 715.311 162.62 709.718Z" stroke="black" stroke-width="5.47" stroke-linecap="square" stroke-linejoin="round"/>
<path d="M172.15 702.998L112.06 548.998C111.317 546.019 111.263 542.91 111.901 539.907C112.539 536.904 113.853 534.085 115.744 531.666C117.634 529.247 120.051 527.29 122.81 525.944C125.57 524.598 128.6 523.898 131.67 523.898H370.33C375.688 523.896 380.891 525.699 385.1 529.015C389.309 532.331 392.279 536.968 393.53 542.178L459.32 696.088C460.03 699.058 460.058 702.15 459.402 705.132C458.746 708.114 457.422 710.908 455.531 713.305C453.641 715.702 451.231 717.64 448.484 718.972C445.737 720.305 442.723 720.998 439.67 720.998H195.29C189.979 721.003 184.819 719.234 180.628 715.974C176.436 712.713 173.453 708.147 172.15 702.998Z" fill="#3FBDF1"/>
<path d="M682.92 678.84L728.68 784.73" stroke="black" stroke-width="5.47" stroke-miterlimit="10"/>
<path d="M900 784.73H0" stroke="black" stroke-width="5.47" stroke-miterlimit="10"/>
<path d="M474.37 306.809C466.95 314.139 455.87 314.129 449.56 307.349" stroke="black" stroke-width="5.47" stroke-miterlimit="10"/>
<path d="M276.62 279.139C280.67 275.349 285.48 271.519 290.55 273.199C296.02 275.019 297.55 281.879 298.17 287.599C299.923 303.319 301.673 319.023 303.42 334.71C305.64 354.71 307.98 375.189 316.29 393.569C320.309 402.552 325.988 410.695 333.03 417.569" stroke="black" stroke-width="5.47" stroke-miterlimit="10"/>
<path d="M378.54 417.449V417.119C377.981 410.674 375.539 404.535 371.52 399.466C367.5 394.398 362.078 390.622 355.93 388.609C349.503 399.17 341.813 408.909 333.03 417.609C310.003 440.506 280.422 455.67 248.39 460.999C249.93 467.129 253.1 472.709 255.29 478.609C257.48 484.509 258.57 491.339 255.91 497.029C252.55 504.289 242.91 503.339 236.21 501.729C236.14 501.729 236.1 501.729 236.03 501.729" stroke="black" stroke-width="5.47" stroke-miterlimit="10"/>
<path d="M201.54 315.531C190.34 317.941 179 319.691 167.62 321.261C173.31 374.421 184.07 428.101 210.11 474.851C215.54 484.621 222.5 495.311 232.9 500.411C233.961 500.926 235.057 501.364 236.18 501.721C246.61 505.151 259.45 502.341 269.33 499.101C293.33 491.261 317.68 481.851 339.56 469.271C358.45 458.441 380.99 440.861 378.56 417.451C378.325 414.873 377.798 412.33 376.99 409.871" stroke="black" stroke-width="5.47" stroke-miterlimit="10"/>
<path d="M388.82 209.488C390.498 216.486 394.329 222.78 399.774 227.484C405.219 232.189 412.003 235.065 419.17 235.708C419.765 232.822 421.056 230.123 422.93 227.849C430.93 218.419 434.34 236.109 459.93 223.409C495.39 205.769 508.85 215.889 508.85 215.889C510.03 216.769 509.85 224.888 510.05 226.368C511.05 234.798 511.95 243.188 512.94 251.608C513.54 256.748 514.13 261.849 514.69 266.949C515.173 266.081 515.707 265.242 516.29 264.438C519.52 253.008 525.29 239.509 537.73 245.319C540.249 246.547 542.442 248.352 544.13 250.588C552.38 261.428 546.13 271.898 537.5 279.648C535.337 282.053 532.919 284.215 530.29 286.099C531.71 289.039 537.51 300.709 537.51 300.749C538.11 301.929 558.38 278.988 559.89 276.488C562.146 270.364 563.356 263.904 563.47 257.379C563.8 230.549 552.88 199.318 531.15 183.928C525.76 180.118 527.48 176.448 527.15 171.268C527.127 170.988 527.02 170.722 526.842 170.504C526.665 170.286 526.425 170.127 526.156 170.048C525.886 169.969 525.599 169.974 525.332 170.061C525.065 170.149 524.831 170.315 524.66 170.539C517.85 178.379 500.99 177.599 500.99 177.599C442.47 162.939 422.8 188.959 410.99 193.599C406.171 195.424 400.867 195.512 395.99 193.849C395.703 195.463 394.98 196.968 393.9 198.202C392.819 199.436 391.423 200.351 389.86 200.849L390.16 203.558C390.415 205.631 389.941 207.727 388.82 209.488Z" fill="#3FBDF1"/>
<path d="M419.21 235.752C412.043 235.108 405.259 232.232 399.814 227.528C394.369 222.824 390.537 216.529 388.86 209.532C388.203 206.848 387.788 204.11 387.62 201.352L388.08 201.302C388.709 201.255 389.328 201.12 389.92 200.902C391.483 200.404 392.879 199.489 393.96 198.255C395.04 197.022 395.763 195.516 396.05 193.902C396.233 193.007 396.27 192.088 396.16 191.182L394.66 177.942C394.66 177.942 405.24 185.812 416.98 181.212C428.72 176.612 448.43 150.592 506.98 165.212C506.98 165.212 520.2 165.992 526.98 158.152C527.151 157.928 527.385 157.762 527.652 157.675C527.919 157.587 528.206 157.583 528.476 157.662C528.745 157.741 528.985 157.9 529.162 158.117C529.34 158.335 529.447 158.602 529.47 158.882C529.82 164.072 531.74 167.742 537.14 171.542C558.87 186.942 569.79 218.162 569.45 244.992C569.35 256.122 565.65 267.112 559.94 276.542C558.43 279.042 538.16 301.982 537.56 300.802C537.56 300.802 531.76 289.092 530.34 286.152L530 285.502L530.65 285.072C533.064 283.433 535.369 281.639 537.55 279.702C546.17 271.952 552.43 261.482 544.18 250.642C542.491 248.406 540.299 246.6 537.78 245.372C525.3 239.562 519.57 253.062 516.34 264.492C515.713 266.676 515.327 268.923 515.19 271.192C515.04 269.792 514.89 268.442 514.74 267.042C514.18 261.942 513.59 256.842 512.99 251.702C511.99 243.282 511.05 234.892 510.1 226.462C509.95 225.022 510.1 216.862 508.9 215.982C508.9 215.982 495.43 205.862 459.98 223.502C434.39 236.202 430.98 218.502 422.98 227.942C421.106 230.217 419.815 232.915 419.22 235.802C419.037 236.729 418.92 237.668 418.87 238.612C418.851 238.734 418.851 238.859 418.87 238.982C418.75 241.052 418.71 243.112 418.66 245.132C418.47 264.622 420.61 284.982 428.26 303.082C437.56 325.022 462.17 346.662 487.76 336.432C495.76 333.222 502.93 328.052 509.49 322.562" stroke="black" stroke-width="5.47" stroke-miterlimit="10"/>
<path d="M436.722 283.286C439.267 282.434 440.495 279.247 439.465 276.168C438.435 273.088 435.536 271.282 432.99 272.134C430.445 272.985 429.217 276.172 430.247 279.252C431.278 282.332 434.177 284.138 436.722 283.286Z" fill="black"/>
<path d="M474.798 282.067C477.343 281.216 478.571 278.029 477.541 274.949C476.51 271.869 473.612 270.063 471.066 270.915C468.521 271.767 467.293 274.954 468.323 278.033C469.353 281.113 472.252 282.919 474.798 282.067Z" fill="black"/>
<path d="M460.24 288.662C460.24 288.662 447.57 295.852 446.8 288.392C446.56 286.092 443.46 263.562 443.46 263.562C443.46 263.562 433.22 252.712 417.53 260.732" stroke="black" stroke-width="5.47" stroke-miterlimit="10"/>
<path d="M457.39 257.249C457.39 257.249 477.85 247.029 491.39 261.759" stroke="black" stroke-width="5.47" stroke-miterlimit="10"/>
<path d="M476.15 338.941L478.5 351.001C471.09 357.831 465.85 367.621 467.38 377.931C468.74 387.071 476.22 395.581 483.89 400.371C496.71 408.371 513.76 407.741 527.56 402.651C541.05 397.651 552.72 388.161 561.18 376.581C565.164 370.983 567.818 364.55 568.94 357.771V357.651" stroke="black" stroke-width="5.47" stroke-miterlimit="10"/>
<path d="M478.5 351L483.08 372.78" stroke="black" stroke-width="5.47" stroke-miterlimit="10"/>
<path d="M543.27 295.551L550.19 341.501C550.872 345.999 553.146 350.103 556.598 353.066C560.05 356.03 564.45 357.657 569 357.651C590.537 361.141 611.782 366.235 632.56 372.891C713.73 399.071 763.69 472.191 777.8 553.891C783.67 588.101 784.11 623.981 776.74 658.001C772.55 677.151 766.49 698.661 752.42 713.001C734.15 731.701 706.11 724.001 684.52 715.551C617.49 689.481 561.74 643.101 513.6 590.001C487.86 561.601 454.6 538.841 454.6 538.841" stroke="black" stroke-width="5.47" stroke-miterlimit="10"/>
<path d="M194.3 668.532C186.78 668.462 180.23 662.392 178.54 653.942C175.2 637.322 174.32 611.622 198.69 606.012C229.14 599.012 252.56 632.172 264.04 653.132C267.9 660.132 263.53 669.132 256.34 669.132L194.3 668.532Z" fill="#D7E8F0"/>
<path d="M204.353 591.9C210.817 587.598 210.917 576.384 204.574 566.853C198.232 557.321 187.85 553.081 181.385 557.383C174.92 561.685 174.821 572.899 181.163 582.43C187.506 591.962 197.888 596.202 204.353 591.9Z" fill="#D7E8F0"/>
<path d="M704.77 741.118C704.3 741.188 703.77 741.258 703.31 741.368H703.13L632 740.998L525.27 740.448C524.86 740.448 524.46 740.448 524.06 740.448C523.267 740.429 522.476 740.369 521.69 740.268C528.921 739.428 535.624 736.064 540.62 730.769C545.615 725.474 548.583 718.586 549 711.318C549.02 710.942 549.02 710.565 549 710.188V709.608C548.971 702.497 546.493 695.613 541.983 690.114C537.474 684.616 531.208 680.838 524.24 679.418C523.51 679.238 522.71 679.128 521.94 679.018C523.15 678.908 524.35 678.828 525.52 678.828L615.69 679.308L632.29 679.378L654.68 679.488C662.346 680.188 669.476 683.722 674.675 689.4C679.873 695.077 682.767 702.49 682.79 710.188C682.791 711.641 682.681 713.092 682.46 714.528C681.394 721.857 677.733 728.56 672.143 733.417C666.553 738.275 659.406 740.965 652 740.998H706.18C703.06 740.998 703.93 740.998 704.77 741.118Z" fill="white"/>
<path d="M560.49 778.312C562.522 780.355 564.939 781.975 567.601 783.077C570.264 784.179 573.119 784.741 576 784.732H523.62C513.62 784.732 508.16 782.292 504.18 778.312C500.09 774.204 497.787 768.648 497.77 762.852C497.77 750.852 507.61 741.012 523.62 741.012H576C571.676 741.005 567.447 742.282 563.849 744.682C560.251 747.081 557.446 750.494 555.791 754.489C554.135 758.484 553.702 762.881 554.548 767.122C555.393 771.363 557.479 775.257 560.54 778.312H560.49Z" fill="#D7E8F0"/>
<path d="M733.48 710.738C733.467 715.357 732.392 719.911 730.34 724.048C728.874 727.176 726.863 730.017 724.4 732.438C720.339 736.462 715.239 739.277 709.67 740.568C707.374 741.098 705.026 741.367 702.67 741.368C703.15 741.258 703.67 741.188 704.13 741.118C703.29 741.038 702.42 741.008 705.55 741.008H651.36C658.771 740.98 665.925 738.29 671.519 733.43C677.113 728.57 680.776 721.862 681.84 714.528C682.061 713.092 682.171 711.641 682.17 710.188C682.147 702.489 679.252 695.075 674.051 689.397C668.85 683.719 661.718 680.186 654.05 679.488L683.3 679.638L702.84 679.748C711.006 679.817 718.812 683.115 724.553 688.922C730.295 694.729 733.504 702.572 733.48 710.738Z" fill="#3FBDF1"/>
<path d="M733.48 710.73C733.419 718.901 730.123 726.714 724.312 732.459C718.502 738.204 710.651 741.412 702.48 741.38L524.56 740.46C523.37 740.46 522.18 740.37 520.98 740.25C528.48 739.4 535.407 735.829 540.45 730.212C545.492 724.596 548.299 717.325 548.339 709.777C548.378 702.23 545.647 694.93 540.664 689.261C535.68 683.592 528.791 679.948 521.3 679.02C522.489 678.895 523.684 678.835 524.88 678.84L702.8 679.76C710.97 679.816 718.785 683.106 724.535 688.91C730.285 694.714 733.501 702.56 733.48 710.73Z" stroke="black" stroke-width="5.47" stroke-linecap="square" stroke-linejoin="round"/>
<path d="M682.15 710.179C682.134 718.348 678.882 726.178 673.105 731.954C667.329 737.731 659.499 740.983 651.33 740.999H524.74C523.544 740.992 522.349 740.925 521.16 740.799C528.654 739.909 535.562 736.301 540.575 730.659C545.587 725.016 548.355 717.731 548.355 710.184C548.355 702.637 545.587 695.352 540.575 689.709C535.562 684.067 528.654 680.459 521.16 679.569C522.35 679.459 523.55 679.379 524.74 679.379H651.33C659.495 679.397 667.32 682.648 673.096 688.419C678.871 694.191 682.126 702.014 682.15 710.179Z" stroke="black" stroke-width="5.47" stroke-linecap="square" stroke-linejoin="round"/>
<path d="M497.77 762.858C497.769 765.726 498.334 768.566 499.432 771.216C500.531 773.865 502.14 776.272 504.17 778.298C508.17 782.298 513.6 784.728 523.61 784.728H705.54C702.41 784.728 703.26 784.668 704.11 784.588C698.787 783.962 693.879 781.403 690.317 777.397C686.755 773.392 684.788 768.218 684.788 762.858C684.788 757.498 686.755 752.325 690.317 748.319C693.879 744.314 698.787 741.755 704.11 741.128C703.26 741.048 702.41 740.988 705.54 740.988H523.61C507.59 740.998 497.77 750.838 497.77 762.858Z" stroke="black" stroke-width="5.47" stroke-linecap="square" stroke-linejoin="round"/>
<path d="M554.07 762.858C554.083 768.655 556.392 774.21 560.49 778.308C564.589 782.407 570.144 784.715 575.94 784.728H701.57C702.41 784.728 703.26 784.668 704.11 784.588C698.787 783.962 693.879 781.403 690.317 777.397C686.755 773.392 684.788 768.218 684.788 762.858C684.788 757.498 686.755 752.325 690.317 748.319C693.879 744.314 698.787 741.755 704.11 741.128C703.26 741.048 702.41 740.988 701.57 740.988H575.94C570.145 741.004 564.591 743.313 560.493 747.411C556.395 751.509 554.086 757.063 554.07 762.858Z" stroke="black" stroke-width="5.47" stroke-linecap="square" stroke-linejoin="round"/>
<path d="M350.42 596H294.3C291.732 595.996 289.221 595.244 287.073 593.838C284.925 592.432 283.232 590.432 282.2 588.08C281.802 587.205 281.631 586.243 281.705 585.284C281.778 584.325 282.093 583.401 282.62 582.596C283.147 581.792 283.869 581.134 284.719 580.683C285.569 580.233 286.518 580.005 287.48 580.02H347.14C344.33 584.75 345.76 591.32 350.42 596Z" fill="#D7E8F0"/>
<path d="M386.71 590.218C386.707 591.748 386.099 593.214 385.017 594.295C383.936 595.377 382.47 595.986 380.94 595.988H350.42C345.76 591.318 344.33 584.748 347.14 579.988H374.09C376.655 579.989 379.164 580.734 381.314 582.132C383.463 583.531 385.161 585.524 386.2 587.868C386.523 588.611 386.696 589.409 386.71 590.218Z" fill="#3FBDF1"/>
<path d="M372.67 595.999C372.512 596.304 372.328 596.595 372.12 596.869C368.12 602.339 359.43 602.869 352.68 597.929C351.882 597.34 351.127 596.695 350.42 595.999C345.76 591.329 344.33 584.759 347.14 579.999C347.298 579.694 347.482 579.403 347.69 579.129C351.69 573.619 360.34 573.129 367.09 578.029C367.903 578.637 368.668 579.306 369.38 580.029C374 584.679 375.44 591.209 372.67 595.999Z" fill="white"/>
<path d="M400.82 625.451C400.809 626.982 400.194 628.447 399.107 629.526C398.021 630.605 396.551 631.211 395.02 631.211H336.13C338.97 626.431 337.55 619.911 332.88 615.211H388.2C390.769 615.212 393.281 615.96 395.432 617.364C397.582 618.769 399.277 620.769 400.31 623.121C400.64 623.854 400.813 624.647 400.82 625.451Z" fill="#3FBDF1"/>
<path d="M336.13 631.208H308.42C305.855 631.21 303.344 630.466 301.194 629.067C299.044 627.668 297.347 625.674 296.31 623.328C295.983 622.594 295.81 621.802 295.8 620.998C295.799 620.242 295.947 619.492 296.236 618.792C296.525 618.093 296.949 617.458 297.484 616.922C298.019 616.387 298.655 615.963 299.354 615.674C300.054 615.385 300.803 615.237 301.56 615.238H332.88C337.55 619.908 339 626.428 336.13 631.208Z" fill="#D7E8F0"/>
<path d="M336.13 631.209C336 631.523 335.828 631.819 335.62 632.089C331.62 637.589 322.96 638.089 316.22 633.179C315.404 632.571 314.636 631.902 313.92 631.179C309.29 626.509 307.87 619.989 310.64 615.179C310.8 614.871 310.984 614.577 311.19 614.299C315.19 608.829 323.88 608.299 330.62 613.249C331.423 613.832 332.178 614.477 332.88 615.179C337.55 619.909 339 626.429 336.13 631.209Z" fill="white"/>
<path d="M355.75 666.181H320.49C317.926 666.178 315.418 665.432 313.269 664.034C311.119 662.635 309.421 660.644 308.38 658.301C307.983 657.423 307.814 656.459 307.888 655.499C307.963 654.538 308.278 653.612 308.805 652.805C309.333 651.999 310.055 651.338 310.905 650.885C311.756 650.431 312.706 650.2 313.67 650.211H352.47C349.69 655.001 351.12 661.511 355.75 666.181Z" fill="#3FBDF1"/>
<path d="M412.89 660.46C412.882 661.981 412.271 663.438 411.192 664.51C410.112 665.582 408.651 666.182 407.13 666.18H355.75C351.12 661.51 349.69 654.99 352.47 650.18H400.27C402.838 650.18 405.351 650.929 407.502 652.333C409.652 653.738 411.347 655.738 412.38 658.09C412.709 658.837 412.883 659.643 412.89 660.46Z" fill="#D7E8F0"/>
<path d="M378 666.181C377.84 666.488 377.656 666.782 377.45 667.061C373.45 672.561 364.8 673.061 358.05 668.151C357.239 667.54 356.474 666.872 355.76 666.151C351.13 661.481 349.7 654.961 352.48 650.151C352.633 649.842 352.813 649.547 353.02 649.271C357.02 643.801 365.71 643.331 372.46 648.221C373.262 648.804 374.018 649.449 374.72 650.151C379.38 654.881 380.8 661.441 378 666.181Z" fill="white"/>
<path d="M111.61 347.371L112.49 347.621L112.16 348.901C111.951 348.401 111.767 347.89 111.61 347.371Z" fill="#353642"/>
<path d="M268.106 427.375C281.27 423.511 288.186 407.589 283.555 391.813C278.924 376.038 264.499 366.381 251.336 370.245C238.172 374.11 231.256 390.031 235.887 405.807C240.518 421.583 254.943 431.239 268.106 427.375Z" fill="#D7E8F0"/>
</svg>
